# xmcd
#
# Track frame offsets:
#	150
#	24553
#	48910
#	71503
#	87372
#	103520
#	121600
#	147519
#	162588
#	180239
#	194145
#	211617
#	232445
#
# Disc length: 3321 seconds
#
# Revision: 0
# Processed by: cddbd v1.5.2PL0 Copyright (c) Steve Scherf et al.
# Submitted via: FairStars CD Ripper 1.80
#
DISCID=b60cf70d
DTITLE=Jimmy LaFave - The Night Tribe
DYEAR=2015
DGENRE=Blues
TTITLE0=The Beauty Of You
TTITLE1=Maybe
TTITLE2=Journey Through The Past
TTITLE3=It's Not On Me
TTITLE4=Trying To Get Back To You
TTITLE5=Talk To An Angel
TTITLE6=Queen Jane Approximately
TTITLE7=Island
TTITLE8=The Night Tribe
TTITLE9=Never Came Back To Memphis
TTITLE10=Smile
TTITLE11=Dust Bowl Okies
TTITLE12=The Roads Of The Earth
EXTD=
EXTT0=
EXTT1=
EXTT2=
EXTT3=
EXTT4=
EXTT5=
EXTT6=
EXTT7=
EXTT8=
EXTT9=
EXTT10=
EXTT11=
EXTT12=
PLAYORDER=
